# xmcd
#
# Track frame offsets:
# 150
# 13037
# 22772
# 34407
# 44755
# 57295
# 66732
# 77507
# 88405
# 98117
# 108647
# 123927
# 133805
# 147905
# 160262
# 174655
# 186307
# 196577
# 205507
# 214912
# 226910
# 236737
# 249512
# 261325
# 273010
# 285655
# 296930
# 308882
# 318032
# 328247
#
# Disc length: 4527 seconds
#
# Revision: 2
# Processed by: cddbd v1.5.1PL2 Copyright (c) Steve Scherf et al.
# Submitted via: Axialis_AX_CDPlayer 2.6
#
DISCID=c611ad1e
DTITLE=Jim Reeves - His Personal Best
DYEAR=1428
DGENRE=Country
TTITLE0=Distant Drums
TTITLE1=Is This Me
TTITLE2=Welcome To My World
TTITLE3=Losing Your Love
TTITLE4=Blue Side Of Lonesome
TTITLE5=I'm Gonna Change Everything
TTITLE6=I Guess I'm Crazy
TTITLE7=Angels Don't Lie
TTITLE8=I Won't Come In While He's There
TTITLE9=He'll Have To Go
TTITLE10=The Blizzard
TTITLE11=Snowflake
TTITLE12=This Is It
TTITLE13=I Love You Because
TTITLE14=Guilty
TTITLE15=I Misssed Me
TTITLE16=I'm Gettin' Better
TTITLE17=Home
TTITLE18=Billy Bayou
TTITLE19=Mexican Joe
TTITLE20=Blue Boy
TTITLE21=Four Walls
TTITLE22=According To My Heart
TTITLE23=Yonder Comes A Sucker
TTITLE24=Bimbo
TTITLE25=Anne Marie
TTITLE26=Am I Losing You
TTITLE27=I Won't Forget You
TTITLE28=Is It Really Over?
TTITLE29=Adios Amigos
EXTD=
EXTT0=
EXTT1=
EXTT2=
EXTT3=
EXTT4=
EXTT5=
EXTT6=
EXTT7=
EXTT8=
EXTT9=
EXTT10=
EXTT11=
EXTT12=
EXTT13=
EXTT14=
EXTT15=
EXTT16=
EXTT17=
EXTT18=
EXTT19=
EXTT20=
EXTT21=
EXTT22=
EXTT23=
EXTT24=
EXTT25=
EXTT26=
EXTT27=
EXTT28=
EXTT29=
PLAYORDER=
